<svg version="1.1" xmlns="http://www.w3.org/2000/svg" xmlns:xlink="http://www.w3.org/1999/xlink" viewBox="0 0 172 172"><g fill="none" fill-rule="nonzero" stroke="none" stroke-width="1" stroke-linecap="butt" stroke-linejoin="miter" stroke-miterlimit="10" stroke-dasharray="" stroke-dashoffset="0" font-family="none" font-weight="none" font-size="none" text-anchor="none" style="mix-blend-mode: normal"><path d="M0,172v-172h172v172z" fill="none"></path><g fill="#ffffff"><path d="M95.29427,19.70833c-32.72287,0 -59.87276,23.78596 -65.25586,54.98177l-10.61003,-9.75618c-2.18583,-2.00667 -5.59392,-1.87789 -7.60059,0.30794c-2.00667,2.17867 -1.86389,5.58675 0.32194,7.60058l18.58854,17.11882c0.43566,0.39936 0.93312,0.69082 1.45573,0.92383c0.13051,0.05877 0.27014,0.07756 0.40592,0.12598c0.47789,0.16921 0.96472,0.2778 1.46973,0.30794c0.1075,0.00641 0.19884,0.05599 0.30794,0.05599c0.07465,0 0.13604,-0.03897 0.20996,-0.04199c0.63329,-0.02338 1.27096,-0.12486 1.87565,-0.37793l23.82357,-9.99414c2.73767,-1.14667 4.0233,-4.30302 2.86947,-7.04069c-1.14667,-2.7305 -4.29619,-4.03013 -7.02669,-2.88346l-15.66309,6.57877c4.05958,-26.66682 27.03532,-47.15723 54.8278,-47.15723c30.659,0 55.54167,24.88983 55.54167,55.54167c0,30.65183 -24.88267,55.54167 -55.54167,55.54167c-23.7575,0 -44.03883,-14.95415 -51.97233,-35.94531c-1.04633,-2.7735 -4.15521,-4.16775 -6.92871,-3.12142c-2.78067,1.0535 -4.18175,4.15521 -3.13542,6.92871c9.46717,25.05467 33.68513,42.88802 62.03646,42.88802c36.58583,0 66.29167,-29.70583 66.29167,-66.29167c0,-36.58583 -29.70583,-66.29167 -66.29167,-66.29167zM95.29427,37.98893c-2.967,0 -5.375,2.408 -5.375,5.375v42.63607c0,2.967 2.408,5.375 5.375,5.375h30.45833c2.967,0 5.375,-2.408 5.375,-5.375c0,-2.967 -2.408,-5.375 -5.375,-5.375h-25.08333v-37.26107c0,-2.967 -2.408,-5.375 -5.375,-5.375z"></path></g></g></svg>